# xmcd
#
# Track frame offsets:
#	150
#	25085
#	49788
#	72678
#	118373
#	142368
#	177145
#	199903
#	227315
#
# Disc length: 3499 seconds
#
# Revision: 0
# Processed by: cddbd v1.4b42PL1 Copyright (c) Steve Scherf et al.
# Submitted via: audiograbber 1.80
#
DISCID=870da909
DTITLE=Eric Clapton - Blues Night Disc 1
DYEAR=1900
DGENRE=
TTITLE0=Key To The Highway
TTITLE1=Worried Live Blues
TTITLE2=All Your Love
TTITLE3=Standing Around Crying Long Distance Call
TTITLE4=Johnnie`s Boogie
TTITLE5=Going Down Slow
TTITLE6=You Belong To Me
TTITLE7=Cry For Me
TTITLE8=Same Thing
EXTD=
EXTT0=
EXTT1=
EXTT2=
EXTT3=
EXTT4=
EXTT5=
EXTT6=
EXTT7=
EXTT8=
PLAYORDER=
